<svg width="25" height="24" viewBox="0 0 25 24" fill="none" xmlns="http://www.w3.org/2000/svg">
<path d="M9.30994 2L5.68994 5.63" stroke="#8F9BB3" stroke-width="1.5" stroke-miterlimit="10" stroke-linecap="round" stroke-linejoin="round"/>
<path d="M15.6899 2L19.3099 5.63" stroke="#8F9BB3" stroke-width="1.5" stroke-miterlimit="10" stroke-linecap="round" stroke-linejoin="round"/>
<path d="M2.5 7.85C2.5 6 3.49 5.85 4.72 5.85H20.28C21.51 5.85 22.5 6 22.5 7.85C22.5 10 21.51 9.85 20.28 9.85H4.72C3.49 9.85 2.5 10 2.5 7.85Z" stroke="#8F9BB3" stroke-width="1.5"/>
<path d="M10.2598 14V17.55" stroke="#8F9BB3" stroke-width="1.5" stroke-linecap="round"/>
<path d="M14.8599 14V17.55" stroke="#8F9BB3" stroke-width="1.5" stroke-linecap="round"/>
<path d="M4 10L5.41 18.64C5.73 20.58 6.5 22 9.36 22H15.39C18.5 22 18.96 20.64 19.32 18.76L21 10" stroke="#8F9BB3" stroke-width="1.5" stroke-linecap="round"/>
</svg>
