<svg width="68" height="67" viewBox="0 0 68 67" fill="none" xmlns="http://www.w3.org/2000/svg">
<circle cx="34.3381" cy="33.3843" r="33.3843" fill="#101426"/>
<path fill-rule="evenodd" clip-rule="evenodd" d="M41.8768 15.5662C40.1207 15.817 38.5993 17.69 38.0433 20.2858C37.5604 22.5402 37.8469 25.056 38.7961 26.8959C39.3582 27.9854 40.2405 28.9055 41.032 29.2275L41.2281 29.3074V31.489V33.6706L41.0809 33.7066C40.9999 33.7264 40.8115 33.8614 40.6624 34.0067C40.1633 34.4926 40.2007 33.7267 40.2176 43.1311L40.2326 51.4387L40.3558 51.6628C40.5178 51.9575 40.9258 52.319 41.2045 52.4148C41.3563 52.467 41.6991 52.4913 42.2806 52.4911C43.0556 52.4909 43.1614 52.4788 43.4322 52.3598C43.7603 52.2156 44.0722 51.9149 44.2278 51.5923C44.323 51.3951 44.3286 50.9115 44.3286 43.0454V34.7075L44.2084 34.4543C44.0708 34.1646 43.7467 33.836 43.5009 33.7368L43.3331 33.6691V31.4904V29.3117L43.6317 29.1659C45.0432 28.477 46.1691 26.6443 46.5748 24.3752C46.7169 23.5801 46.7704 22.1306 46.685 21.3835C46.2718 17.765 44.1822 15.2368 41.8768 15.5662ZM23.0803 15.7218C22.6277 15.7757 22.1948 16.1203 22.0476 16.5439C21.9891 16.7123 21.9698 17.8968 21.9566 22.1479C21.9413 27.0369 21.9484 27.5561 22.0325 27.7287C22.2144 28.1019 23.1985 28.9357 24.8012 30.0742L25.1283 30.3066V31.7756V33.2445L24.9492 33.3389C24.6374 33.5033 24.3863 33.7467 24.2287 34.0377L24.0758 34.3197V42.7407V51.1617L24.2352 51.4777C24.4139 51.8321 24.6368 52.0402 25.0145 52.2052C25.2336 52.3009 25.3895 52.317 26.0954 52.3165C26.5551 52.3161 27.0251 52.2869 27.1568 52.2505C27.4825 52.1605 27.9285 51.7567 28.0794 51.415L28.2014 51.1387L28.1867 42.7015C28.1723 34.4451 28.1695 34.2596 28.0603 34.0451C27.9253 33.7799 27.5813 33.4447 27.3475 33.3504L27.1763 33.2813L27.1782 31.7507L27.1801 30.22L27.6459 29.8876C28.5997 29.2068 29.586 28.3431 29.9168 27.8987L30.0777 27.6826V22.2679V16.8532L29.9184 16.5562C29.6484 16.0529 29.1218 15.7443 28.4848 15.7161L28.2288 15.7048L28.2004 21.1789L28.1719 26.653L28.0315 26.7561C27.7629 26.9533 27.3351 26.9765 27.0034 26.8117C26.8795 26.7501 26.772 26.694 26.7646 26.6871C26.7571 26.68 26.738 24.2065 26.7219 21.1902L26.6928 15.706L26.0243 15.7042C25.465 15.7028 25.3551 15.7163 25.3513 15.7868C25.3488 15.8331 25.3424 18.2792 25.3371 21.2226C25.3265 27.1137 25.3535 26.6945 24.9737 26.8491C24.6054 26.999 24.099 26.8993 23.9126 26.6401C23.8284 26.523 23.8198 26.0135 23.8198 21.1068V15.7023L23.5212 15.7036C23.3569 15.7043 23.1585 15.7125 23.0803 15.7218Z" fill="#FFBC37"/>
</svg>
